name Walk10.mot
datacolumns 19
datarows 10
range 1.98000000 2.02500000
endheader

                time	   L_ground_force_vx	   L_ground_force_vy	   L_ground_force_vz	   L_ground_force_px	   L_ground_force_py	   L_ground_force_pz	   R_ground_force_vx	   R_ground_force_vy	   R_ground_force_vz	   R_ground_force_px	   R_ground_force_py	   R_ground_force_pz	   L_ground_torque_x	   L_ground_torque_y	   L_ground_torque_z	   R_ground_torque_x	   R_ground_torque_y	   R_ground_torque_z	
          1.98000000	         -0.00197677	          0.00974109	         -0.00381650	         -0.00007818	          0.00000000	         -0.00004748	        -38.58653994	        864.16319329	        -58.91393952	          0.49107775	          0.00000000	          0.14922318	          0.00000000	         -0.00009451	          0.00000000	          0.00000000	          5.72958979	          0.00000000	
          1.98500000	         -0.00549324	         -0.00144469	         -0.00243246	         -0.00005496	          0.00000000	         -0.00003464	        -36.63202941	        854.80428133	        -57.75107605	          0.49271524	          0.00000000	          0.14968423	          0.00000000	         -0.00008172	          0.00000000	          0.00000000	          5.39011534	          0.00000000	
          1.99000000	         -0.00731383	         -0.00850366	         -0.00135251	         -0.00003572	          0.00000000	         -0.00002367	        -34.77606919	        846.33094490	        -56.56372753	          0.49430100	          0.00000000	          0.15011162	          0.00000000	         -0.00006706	          0.00000000	          0.00000000	          5.06636614	          0.00000000	
          1.99500000	         -0.00790291	         -0.01235790	         -0.00055300	         -0.00002056	          0.00000000	         -0.00001477	        -32.99988969	        838.77262114	        -55.38244758	          0.49583224	          0.00000000	          0.15050649	          0.00000000	         -0.00005236	          0.00000000	          0.00000000	          4.75468496	          0.00000000	
          2.00000000	         -0.00765565	         -0.01385219	          0.00000345	         -0.00000921	          0.00000000	         -0.00000789	        -31.28559591	        832.15730824	        -54.23738138	          0.49730749	          0.00000000	          0.15087019	          0.00000000	         -0.00003878	          0.00000000	          0.00000000	          4.45162058	          0.00000000	
          2.00500000	         -0.00689162	         -0.01371491	          0.00036001	         -0.00000120	          0.00000000	         -0.00000285	        -29.61719895	        826.50548538	        -53.15603057	          0.49872660	          0.00000000	          0.15120515	          0.00000000	         -0.00002701	          0.00000000	          0.00000000	          4.15388255	          0.00000000	
          2.01000000	         -0.00585661	         -0.01254219	          0.00056020	          0.00000403	          0.00000000	          0.00000060	        -27.98102387	        821.82591459	        -52.16184604	          0.50008976	          0.00000000	          0.15151495	          0.00000000	         -0.00001733	          0.00000000	          0.00000000	          3.85877199	          0.00000000	
          2.01500000	         -0.00472970	         -0.01079821	          0.00064427	          0.00000706	          0.00000000	          0.00000277	        -26.36632441	        818.11426536	        -51.27320630	          0.50139826	          0.00000000	          0.15180281	          0.00000000	         -0.00000975	          0.00000000	          0.00000000	          3.56442175	          0.00000000	
          2.02000000	         -0.00363297	         -0.00882582	          0.00064723	          0.00000845	          0.00000000	          0.00000394	        -24.76577686	        815.35559360	        -50.50252915	          0.50265514	          0.00000000	          0.15207023	          0.00000000	         -0.00000412	          0.00000000	          0.00000000	          3.26980653	          0.00000000	
          2.02500000	         -0.00264233	         -0.00686295	          0.00059794	          0.00000867	          0.00000000	          0.00000438	        -23.17487473	        813.52739740	        -49.85741862	          0.50386443	          0.00000000	          0.15231723	          0.00000000	         -0.00000018	          0.00000000	          0.00000000	          2.97469723	          0.00000000	
